<svg width="220" height="50" viewBox="0 0 220 50" xmlns="http://www.w3.org/2000/svg">
  <rect x="0" y="1" width="46" height="46" rx="12" fill="#16a34a"/>
  <rect x="10" y="12" width="19" height="2.2" rx="1.1" fill="white" opacity="0.5"/>
  <rect x="10" y="18" width="15" height="2.2" rx="1.1" fill="white" opacity="0.5"/>
  <rect x="10" y="24" width="17" height="2.2" rx="1.1" fill="white" opacity="0.5"/>
  <rect x="10" y="30" width="11" height="2.2" rx="1.1" fill="white" opacity="0.5"/>

  <circle cx="35" cy="13" r="1.8" fill="white"/>
  <line x1="35" y1="8.5" x2="35" y2="10.8" stroke="white" stroke-width="1.4" stroke-linecap="round"/>
  <line x1="35" y1="15.2" x2="35" y2="17.5" stroke="white" stroke-width="1.4" stroke-linecap="round"/>
  <line x1="30.5" y1="13" x2="32.8" y2="13" stroke="white" stroke-width="1.4" stroke-linecap="round"/>
  <line x1="37.2" y1="13" x2="39.5" y2="13" stroke="white" stroke-width="1.4" stroke-linecap="round"/>
  <line x1="32.2" y1="10.2" x2="33.7" y2="11.7" stroke="white" stroke-width="1.2" stroke-linecap="round"/>
  <line x1="36.3" y1="14.3" x2="37.8" y2="15.8" stroke="white" stroke-width="1.2" stroke-linecap="round"/>
  <line x1="37.8" y1="10.2" x2="36.3" y2="11.7" stroke="white" stroke-width="1.2" stroke-linecap="round"/>
  <line x1="33.7" y1="14.3" x2="32.2" y2="15.8" stroke="white" stroke-width="1.2" stroke-linecap="round"/>

  <text x="55" y="34" font-family="system-ui, -apple-system, sans-serif" font-size="24" font-weight="700" letter-spacing="-0.5">
    <tspan fill="#16a34a">Resume</tspan><tspan fill="#1e293b">Genie</tspan>
  </text>
</svg>
